<svg width="24" height="24" viewBox="0 0 24 24" fill="none" xmlns="http://www.w3.org/2000/svg">
    <path
        d="M21 12.75H3C2.59 12.75 2.25 12.41 2.25 12C2.25 11.59 2.59 11.25 3 11.25H21C21.41 11.25 21.75 11.59 21.75 12C21.75 12.41 21.41 12.75 21 12.75Z"
        fill="#292D32" />
    <path
        d="M11.9994 22.9084C12.4136 22.9084 12.7494 22.5727 12.7494 22.1584V16.6984L14.2994 18.2484C14.4494 18.3984 14.6394 18.4684 14.8294 18.4684C15.0194 18.4684 15.2094 18.3984 15.3594 18.2484C15.6494 17.9584 15.6494 17.4784 15.3594 17.1884L12.5294 14.3584C12.2494 14.0784 11.7494 14.0784 11.4694 14.3584L8.63938 17.1884C8.34938 17.4784 8.34938 17.9584 8.63938 18.2484C8.92937 18.5384 9.40937 18.5384 9.69937 18.2484L11.2494 16.6984V22.1584C11.2494 22.5727 11.5852 22.9084 11.9994 22.9084V22.9084Z"
        fill="#292D32" />
    <path
        d="M12.0006 1.00172C11.5864 1.00172 11.2506 1.33751 11.2506 1.75172L11.2506 7.21172L9.70063 5.66172C9.55063 5.51172 9.36063 5.44172 9.17063 5.44172C8.98063 5.44172 8.79063 5.51172 8.64063 5.66172C8.35063 5.95172 8.35063 6.43172 8.64063 6.72172L11.4706 9.55172C11.7506 9.83172 12.2506 9.83172 12.5306 9.55172L15.3606 6.72172C15.6506 6.43172 15.6506 5.95172 15.3606 5.66172C15.0706 5.37172 14.5906 5.37172 14.3006 5.66172L12.7506 7.21172L12.7506 1.75172C12.7506 1.3375 12.4148 1.00172 12.0006 1.00172V1.00172Z"
        fill="#292D32" />
</svg>